<?xml version="1.0" encoding="UTF-8"?>
<!DOCTYPE svg PUBLIC "-//W3C//DTD SVG 1.1//EN" "http://www.w3.org/Graphics/SVG/1.1/DTD/svg11.dtd">
<!-- Creator: CorelDRAW (Evaluation Version) -->
<svg xmlns="http://www.w3.org/2000/svg" xml:space="preserve" width="70mm" height="40mm" version="1.1" style="shape-rendering:geometricPrecision; text-rendering:geometricPrecision; image-rendering:optimizeQuality; fill-rule:evenodd; clip-rule:evenodd"
viewBox="0 0 7000 4000"
 xmlns:xlink="http://www.w3.org/1999/xlink"
 xmlns:xodm="http://www.corel.com/coreldraw/odm/2003">
 <defs>
  <style type="text/css">
   <![CDATA[
    .fil1 {fill:#001D64;fill-rule:nonzero}
    .fil0 {fill:#001D64;fill-rule:nonzero}
    @media (prefers-color-scheme: dark){
    .fil1 {fill:#4d8dff;fill-rule:nonzero}
    .fil0 {fill:#4d8dff;fill-rule:nonzero}
    }
   ]]>
  </style>
 </defs>
 <g id="Layer_x0020_1">
  <metadata id="CorelCorpID_0Corel-Layer"/>
  <path class="fil0" d="M581.53 512.06l362.3 0c215.13,0 322.83,84.71 322.83,254.36 0,83.96 -36.73,153.67 -110.44,209.39 106.69,46.47 159.91,129.18 159.91,248.36 0,91.2 -31.48,164.16 -94.45,218.38 -30.48,25.73 -63.46,43.72 -98.7,53.97 -34.98,10.24 -82.2,15.49 -141.67,15.49l-56.47 0 0 -256.36 50.48 0c29.98,0 50.97,-3.75 63.21,-11.49 12.24,-7.5 18.24,-20.99 18.24,-40.23 0,-32.48 -24.98,-48.72 -74.71,-48.72l-57.22 0 0 -266.35c54.97,0 82.46,-18.99 82.46,-56.47 0,-34.73 -24.74,-51.97 -74.46,-51.97l-54.47 0 0 731.59 -296.84 0 0 -999.95z"/>
  <path class="fil0" d="M1850.35 792.41l274.34 0 0 412.27c0,41.98 16.99,62.97 51.23,62.97 33.73,0 50.72,-20.99 50.72,-62.97l0 -412.27 274.35 0 0 407.02c0,94.95 -31.49,174.91 -94.45,240.12 -62.97,65.21 -139.92,97.95 -231.12,97.95 -103.95,0 -187.65,-37.98 -251.11,-113.69 -49.23,-59.22 -73.96,-141.17 -73.96,-246.36l0 -385.04z"/>
  <path class="fil0" d="M3378.27 1191.19l-415.02 0c-5.75,-20.99 -8.75,-39.98 -8.75,-57.47 0,-24.24 4.25,-48.22 12.5,-71.46l139.17 0c-9.75,-54.97 -40.23,-82.46 -91.45,-82.46 -34.23,0 -61.97,14.5 -83.45,43.73 -21.49,28.98 -32.24,66.46 -32.24,111.94 0,47.47 10.25,85.7 30.99,115.18 20.74,29.24 47.97,43.98 81.7,43.98 27.24,0 53.72,-13.74 78.96,-41.23l155.91 187.65c-72.71,57.22 -153.66,85.95 -242.61,85.95 -108.19,0 -199.39,-36.48 -273.1,-109.19 -73.71,-72.96 -110.69,-162.91 -110.69,-270.6 0,-106.94 37.23,-197.39 111.69,-271.1 74.71,-73.71 166.15,-110.69 274.59,-110.69 105.95,0 195.15,35.98 267.11,108.19 72.21,71.96 108.19,160.66 108.19,266.36 0,10.74 -1.25,27.73 -3.5,51.22z"/>
  <path class="fil1" d="M1410 503.26l296.84 0 0 1443.95c0,46.46 7.44,77.28 22.24,92.7 14.92,15.55 44.48,22.99 88.46,22.99l15.23 0 0 290.09 -78.95 0c-108.44,0 -192.64,-31.74 -253.11,-94.95 -60.47,-63.2 -90.71,-150.91 -90.71,-263.1l0 -1491.68z"/>
  <path class="fil0" d="M2319.26 2079.14l0 283.34c-22.49,3.75 -42.98,5.5 -61.46,5.5 -109.69,0 -200.89,-36.23 -274.1,-108.44 -73.21,-72.21 -109.69,-162.66 -109.69,-271.6 0,-105.94 36.98,-195.64 110.94,-269.35 73.71,-73.71 163.66,-110.69 269.6,-110.69 117.93,0 210.88,34.48 279.09,103.7 67.96,69.21 101.95,163.65 101.95,283.34l0 358.05 -274.35 0 0 -338.31c0,-38.48 -9.25,-69.21 -27.99,-92.2 -18.49,-22.74 -43.72,-34.23 -75.21,-34.23 -28.48,0 -53.22,10.49 -73.95,31.48 -20.74,20.99 -31.24,45.72 -31.24,74.46 0,30.23 9.5,55.22 28.24,74.71 18.99,19.49 42.97,29.23 71.96,29.23 23.73,0 45.97,-6.25 66.21,-18.99z"/>
  <path class="fil0" d="M2794.27 1633.39l274.34 0 0 412.27c0,41.98 16.99,62.97 51.23,62.97 33.73,0 50.72,-20.99 50.72,-62.97l0 -412.27 274.35 0 0 407.02c0,94.95 -31.49,174.91 -94.45,240.12 -62.97,65.21 -139.92,97.95 -231.12,97.95 -103.95,0 -187.65,-37.98 -251.11,-113.69 -49.23,-59.22 -73.96,-141.17 -73.96,-246.36l0 -385.04z"/>
  <path class="fil0" d="M4255.22 2352.99l-274.35 0 0 -412.27c0,-41.98 -16.99,-62.97 -51.22,-62.97 -33.74,0 -50.73,20.99 -50.73,62.97l0 412.27 -274.34 0 0 -407.27c0,-94.95 31.48,-175.16 94.44,-240.12 62.97,-65.22 139.93,-97.7 231.38,-97.7 104.19,0 187.89,37.73 250.86,113.44 49.22,58.97 73.96,141.17 73.96,246.36l0 385.29z"/>
  <path class="fil0" d="M4864.65 1353.04l274.35 0 0 608.92c0,111.93 -29.24,202.88 -87.96,273.35 -33.73,40.47 -76.7,72.7 -128.67,96.69 -51.98,23.99 -105.45,35.98 -160.17,35.98 -108.94,0 -200.89,-36.73 -275.59,-109.94 -74.71,-73.21 -112.19,-163.16 -112.19,-269.85 0,-102.94 37.23,-192.14 111.44,-267.35 74.21,-75.21 161.91,-112.94 263.6,-112.94 15.99,0 40.48,1.5 73.21,4.75l0 301.58c-22.49,-17.24 -44.97,-25.98 -67.46,-25.98 -28.49,0 -52.72,10.49 -72.96,31.23 -20.24,20.74 -30.49,45.72 -30.49,75.21 0,28.23 10.5,52.72 31.49,72.96 21.24,20.24 46.22,30.48 75.71,30.48 70.46,0 105.69,-48.72 105.69,-146.42l0 -598.67z"/>
  <path class="fil0" d="M5682.7 1615.65l0 292.84c-18.99,-10.5 -36.23,-15.75 -51.72,-15.75 -49.47,0 -74.21,37.98 -74.21,113.94l0 346.31 -274.34 0 0 -399.03c0,-105.44 28.73,-189.39 86.45,-252.11 57.47,-62.71 134.42,-93.95 230.37,-93.95 21.49,0 49.22,2.5 83.45,7.75z"/>
  <path class="fil1" d="M5682.02 2712.44l-2.23 -244.69 275.53 -9.81c88.64,-3.16 146.18,-49.98 172.66,-149.67 -47.73,28.73 -94.45,43.22 -140.43,43.22 -67.71,0 -123.43,-25.23 -167.41,-75.95 -43.72,-50.73 -65.71,-115.19 -65.71,-193.4l0 -459.25 274.35 0 0 392.54c0,44.23 17.74,66.21 53.47,66.21 34.23,0 51.47,-24.24 51.47,-72.96l0 -385.79 274.35 0 0 651.64c0,121.69 -34.19,219.93 -102.69,294.6 -81.41,88.73 -180.23,129.61 -295.84,133.18l-327.52 10.13z"/>
  <path class="fil0" d="M3397.54 2507.19l-263.61 453.75 262.11 546.2 -333.82 0 -226.12 -552.2 256.11 -447.75 305.33 0zm-570.44 0l0 999.95 -296.83 0 0 -999.95 296.83 0zm923.5 269.85l0 730.1 -274.35 0 0 -730.1 274.35 0zm-135.68 -325.32c37.23,0 69.21,12.99 96.45,39.23 27.23,25.98 40.73,56.96 40.73,92.7 0,37.97 -12.75,69.46 -38.48,93.69 -25.74,24.49 -58.47,36.73 -98.7,36.73 -39.98,0 -72.96,-12.24 -98.7,-36.73 -25.73,-24.23 -38.47,-55.72 -38.47,-93.69 0,-35.74 13.49,-66.72 40.72,-92.7 27.24,-26.24 59.22,-39.23 96.45,-39.23zm570.44 55.47l0 999.95 -274.35 0 0 -999.95 274.35 0zm434.01 269.85l0 730.1 -274.35 0 0 -730.1 274.35 0zm-135.68 -325.32c37.23,0 69.21,12.99 96.45,39.23 27.23,25.98 40.73,56.96 40.73,92.7 0,37.97 -12.75,69.46 -38.48,93.69 -25.74,24.49 -58.47,36.73 -98.7,36.73 -39.98,0 -72.96,-12.24 -98.7,-36.73 -25.73,-24.23 -38.47,-55.72 -38.47,-93.69 0,-35.74 13.49,-66.72 40.72,-92.7 27.24,-26.24 59.22,-39.23 96.45,-39.23zm691.87 485.73l0 287.84 -121.43 0 0 281.85 -274.35 0 0 -621.16c0,-69.46 11.99,-128.93 35.73,-177.9 30.48,-62.72 76.21,-113.94 137.92,-153.42 61.72,-39.73 125.93,-59.47 192.9,-59.47l29.23 -0.5 0 287.35c-6.25,0.75 -10.99,1 -13.74,1 -34.48,0 -60.97,11.24 -79.71,33.73 -18.74,22.49 -27.98,54.47 -27.98,95.95l0 24.73 121.43 0zm394.54 -160.41l0 730.1 -274.35 0 0 -730.1 274.35 0zm-135.68 -325.32c37.23,0 69.21,12.99 96.45,39.23 27.23,25.98 40.73,56.96 40.73,92.7 0,37.97 -12.75,69.46 -38.48,93.69 -25.74,24.49 -58.47,36.73 -98.7,36.73 -39.98,0 -72.96,-12.24 -98.7,-36.73 -25.73,-24.23 -38.47,-55.72 -38.47,-93.69 0,-35.74 13.49,-66.72 40.72,-92.7 27.24,-26.24 59.22,-39.23 96.45,-39.23z"/>
 </g>
</svg>
