<?xml version="1.0" standalone="no"?>
<!DOCTYPE svg PUBLIC "-//W3C//DTD SVG 20010904//EN"
 "http://www.w3.org/TR/2001/REC-SVG-20010904/DTD/svg10.dtd">
<svg version="1.0" xmlns="http://www.w3.org/2000/svg"
 width="64.000000pt" height="64.000000pt" viewBox="0 0 64.000000 64.000000"
 preserveAspectRatio="xMidYMid meet">
<metadata>
Created by potrace 1.10, written by Peter Selinger 2001-2011
</metadata>
<g transform="translate(0.000000,64.000000) scale(0.100000,-0.100000)"
fill="#000000" stroke="none">
<path d="M240 620 c-8 -14 -21 -20 -46 -20 -45 0 -95 -23 -114 -52 -20 -30
-28 -511 -9 -534 17 -21 481 -21 498 0 19 23 11 504 -9 534 -19 29 -69 52
-114 52 -25 0 -38 6 -46 20 -9 17 -21 20 -80 20 -59 0 -71 -3 -80 -20z m98
-11 c-12 -7 -24 -7 -35 0 -15 9 -12 10 17 10 29 0 32 -1 18 -10z m-46 -12 c11
-9 14 -18 8 -27 -7 -11 -13 -10 -34 4 -15 9 -24 21 -21 26 8 13 27 12 47 -3z
m103 4 c9 -16 -37 -42 -52 -29 -11 9 -10 13 4 24 21 16 40 18 48 5z m-215 -25
c0 -2 -9 -25 -20 -51 l-20 -46 31 -39 c29 -36 30 -41 24 -94 l-7 -55 61 -67
61 -67 0 -68 0 -69 -75 0 -75 0 0 190 c0 120 -4 190 -10 190 -6 0 -10 -63 -10
-170 l0 -170 -30 0 -30 0 0 223 c1 237 4 257 51 283 23 13 49 18 49 10z m48
-34 c2 -18 8 -32 14 -32 6 0 8 11 5 25 -5 31 10 28 35 -6 14 -19 17 -34 12
-72 -7 -52 -24 -64 -24 -17 0 18 -5 30 -13 30 -11 0 -8 -29 15 -131 15 -72 31
-137 34 -143 3 -6 -17 14 -45 44 l-51 55 6 57 c5 53 4 60 -24 94 -28 34 -29
38 -18 68 7 17 16 39 20 49 9 28 31 15 34 -21z m232 -14 l17 -46 -29 -37 c-28
-33 -29 -40 -24 -93 l6 -57 -50 -55 c-45 -49 -49 -52 -41 -25 5 17 24 100 41
185 18 85 34 161 36 168 7 24 26 7 44 -40z m45 40 c50 -23 55 -48 55 -288 l0
-220 -30 0 c-27 0 -30 3 -30 30 0 17 -4 30 -10 30 -5 0 -10 -22 -10 -50 l0
-50 -75 0 -75 0 0 70 0 69 61 66 61 65 -7 56 c-6 53 -5 58 24 94 l31 39 -20
46 c-11 26 -20 49 -20 51 0 7 19 4 45 -8z m-171 -17 c7 -11 -3 -41 -14 -41
-11 0 -21 30 -14 41 3 5 9 9 14 9 5 0 11 -4 14 -9z m50 -43 c-7 -29 -14 -63
-14 -75 0 -13 -4 -23 -10 -23 -5 0 -10 8 -10 19 0 10 -3 32 -6 47 -4 21 1 37
16 57 32 41 40 33 24 -25z m-47 -89 c10 -68 -1 -199 -17 -199 -16 0 -27 131
-17 199 6 39 14 71 17 71 3 0 11 -32 17 -71z m-197 -389 c0 -5 -13 -10 -30
-10 -16 0 -30 5 -30 10 0 6 14 10 30 10 17 0 30 -4 30 -10z m420 0 c0 -5 -13
-10 -30 -10 -16 0 -30 5 -30 10 0 6 14 10 30 10 17 0 30 -4 30 -10z"/>
<path d="M270 120 c0 -5 5 -10 10 -10 6 0 10 5 10 10 0 6 -4 10 -10 10 -5 0
-10 -4 -10 -10z"/>
<path d="M270 70 c0 -5 5 -10 10 -10 6 0 10 5 10 10 0 6 -4 10 -10 10 -5 0
-10 -4 -10 -10z"/>
<path d="M480 274 c0 -81 4 -123 10 -119 6 4 10 57 10 126 0 73 -4 119 -10
119 -6 0 -10 -49 -10 -126z"/>
<path d="M350 120 c0 -5 5 -10 10 -10 6 0 10 5 10 10 0 6 -4 10 -10 10 -5 0
-10 -4 -10 -10z"/>
<path d="M350 70 c0 -5 5 -10 10 -10 6 0 10 5 10 10 0 6 -4 10 -10 10 -5 0
-10 -4 -10 -10z"/>
</g>
</svg>
